<svg id="Calque_1" data-name="Calque 1" xmlns="http://www.w3.org/2000/svg" viewBox="0 0 36.29 36.29"><defs><style>.cls-1{fill:#020202}</style></defs><path class="cls-1" d="M26.28 21.37h-2.57V30h-2.95v-8.63h-1.63v-1.43l1.63-.79v-.8a3.52 3.52 0 01.91-2.7 4.13 4.13 0 012.91-.85 7.55 7.55 0 012.7.45l-.76 2.17a5.55 5.55 0 00-1.62-.27 1.05 1.05 0 00-.91.38 1.58 1.58 0 00-.28.95v.67h2.57zM34 19a4.18 4.18 0 011 0l-.23 2.77a3.22 3.22 0 00-.87-.09 3.1 3.1 0 00-2.2.72 2.66 2.66 0 00-.79 2v5.51h-3V19.15h2.24L30.6 21h.14a3.92 3.92 0 011.36-1.5A3.33 3.33 0 0134 19zM13.73 20.54a3.83 3.83 0 00-3.83 3.83v5.78h7.66v-5.78a3.82 3.82 0 00-3.83-3.83zm1.92 7.67h-3.84v-3.84a1.92 1.92 0 113.84 0z"/><path class="cls-1" d="M6.28 18.42A3.83 3.83 0 008 17.33a3.84 3.84 0 005.41.34c.12-.11.23-.22.34-.34a3.84 3.84 0 005.41.34c.12-.11.23-.22.34-.34a4.43 4.43 0 01.9-2.33 1 1 0 010-.25h-1.88a1.92 1.92 0 01-3.83 0h-1.92a1.92 1.92 0 01-3.83 0H7a1.92 1.92 0 01-3.83.15l2.6-6.81h15.92l2 5.44h.86a9.66 9.66 0 011.2.07L23 6.15H4.45l-3.17 8.47V15a3.83 3.83 0 002.86 3.5v9.86a1.92 1.92 0 001.93 1.8H8v-1.95H6.07V18.5z"/></svg>