<svg width="15" height="20" viewBox="0 0 15 20" xmlns="http://www.w3.org/2000/svg"><g fill="none" fill-rule="evenodd"><path d="M14.472 10.644H8.76a.452.452 0 00-.454.45v7.045c.001.862.707 1.56 1.577 1.561h3.466c.87 0 1.576-.7 1.577-1.561v-7.045a.447.447 0 00-.133-.318.456.456 0 00-.321-.132z"/><path d="M9.172 11.501v6.636c0 .39.32.706.712.706h3.464a.71.71 0 00.712-.705v-6.637H9.172zm-.411-.857h5.71c.251 0 .454.201.454.45v7.044A1.57 1.57 0 0113.35 19.7H9.884c-.87 0-1.576-.7-1.577-1.562v-7.044c0-.249.203-.45.454-.45z" fill="#4A4A4A" fill-rule="nonzero"/><path d="M6.578 11.706H.867a.452.452 0 00-.454.45v5.983c0 .862.706 1.56 1.577 1.561h3.465c.87 0 1.576-.7 1.577-1.561v-5.983a.452.452 0 00-.455-.45h.001z"/><path d="M1.28 12.563v5.575c0 .388.32.705.71.705h3.465a.71.71 0 00.712-.705v-5.575H1.28zm5.299-.857c.25 0 .453.202.454.45v5.982c-.001.863-.707 1.561-1.577 1.562H1.99c-.87 0-1.576-.7-1.577-1.562v-5.982c0-.249.203-.45.454-.45h5.71z" fill="#4A4A4A" fill-rule="nonzero"/><path d="M13.917 11.099v-.78a.452.452 0 00-.453-.45H9.77a.452.452 0 00-.454.45h0v.78h4.6z" stroke="#4A4A4A" stroke-width=".857"/><g><path d="M6.028 12.562l-.004-6.994a.463.463 0 00-.454-.473H1.876a.463.463 0 00-.454.473l.004 6.994h4.602z"/><path d="M5.162 11.705l-.003-5.752H2.288l.003 5.752h2.87zm.866.857H1.426l-.004-6.994c0-.26.203-.472.454-.472H5.57c.25 0 .454.211.454.472l.004 6.994z" fill="#4A4A4A" fill-rule="nonzero"/></g><g><path d="M5.511 5.958V2.286a4.171 4.171 0 00-.12-.932C5.13.346 4.538.195 4.208.195c-.414 0-.861.37-1.493 1.236-.39.535-.705 1.062-.718 1.085a.445.445 0 00-.062.229v3.214l3.576-.001z"/><path d="M4.646 5.1V2.294a3.327 3.327 0 00-.095-.73c-.09-.344-.208-.454-.243-.479a.15.15 0 00-.076-.03c-.061.028-.3.174-.815.878-.276.38-.513.757-.616.924v2.245h1.845zm.865.858H1.935V2.743c0-.08.022-.158.063-.227.013-.022.327-.55.718-1.085C3.348.565 3.795.195 4.209.195c.33 0 .921.151 1.182 1.16.075.305.115.617.12.932v3.67z" fill="#4A4A4A" fill-rule="nonzero"/></g></g></svg>