<svg width="25" height="25" viewBox="0 0 25 25" fill="none" xmlns="http://www.w3.org/2000/svg"><path fill-rule="evenodd" clip-rule="evenodd" d="M11.75 20.262h1.5v-8.25h-1.5v8.25zm-7.5-9.75v-2.25h6v2.25h-6zm3-5.25c0-.828.673-1.5 1.5-1.5s1.5.672 1.5 1.5v1.5h-1.5c-.827 0-1.5-.673-1.5-1.5zm4.5 5.25h1.5v-2.25h-1.5v2.25zm3-5.25c0-.828.673-1.5 1.5-1.5s1.5.672 1.5 1.5c0 .827-.673 1.5-1.5 1.5h-1.5v-1.5zm6 5.25h-6v-2.25h6v2.25zm1.5 1.5v-3.75c0-.825-.675-1.5-1.5-1.5h-1.916c.258-.443.416-.951.416-1.5a3 3 0 00-6 0v1.5h-1.5v-1.5a3 3 0 00-6 0c0 .549.158 1.057.416 1.5H4.25c-.825 0-1.5.675-1.5 1.5v3.75h7.5v8.25h-4.5v-6.75h-1.5v6.75c0 .825.675 1.5 1.5 1.5h13.5c.825 0 1.5-.675 1.5-1.5v-6.75h-1.5v6.75h-4.5v-8.25h7.5z" fill="#4A4A4A"/></svg>