<svg width="20" height="20" viewBox="0 0 20 20" xmlns="http://www.w3.org/2000/svg"><g fill="none" fill-rule="evenodd"><g transform="translate(.244 .244)"><circle cx="9.636" cy="9.636" r="9.636"/><circle stroke="#4A4A4A" stroke-width=".732" cx="9.636" cy="9.636" r="9.27"/></g><path stroke="#4A4A4A" stroke-width=".732" d="M12.362 6.899l2.47 2.516-.945 3.398-3.414.88-2.47-2.517.945-3.397zM19.252 9.88l-1.685.463-.945 3.397 1.208 1.23M15.398 17.491l-1.344-1.37-3.414.881-.642 2.236M5.006 1.817L7.37 4.222l3.415-.88.79-2.78M14.686 1.817l-.59 2.124 2.469 2.516 2.017-.52M.485 10.565l1.195-.268 1.81-.467.945-3.397-2.129-2.21M6.314 18.562l.648-2.33-2.47-2.517-2.83.773"/></g></svg>