<svg xmlns="http://www.w3.org/2000/svg" width="32" height="32" viewBox="0 0 24 24"><path d="M23.484 12.84c-.12-1.535-.683-2.04-2.738-2.531-2.05-.493-3.84-.914-4.367-1.043-.719-.59-3.973-3.121-6.48-3.145H3.226A1.94 1.94 0 001.488 7.2L.383 9.602l-.156.359a.54.54 0 000 .273V13.2c-.122.23-.184.485-.18.746 0 .899 1.02 1.426 1.332 1.582.09.055.195.086.3.086h.72a2.818 2.818 0 002.75 2.266 2.77 2.77 0 002.734-2.277h7.523a2.784 2.784 0 005.473 0h1.488c.903 0 1.633-.73 1.633-1.633a2.57 2.57 0 00-.516-1.13zM7.32 6.91h2.578c1.645 0 3.997 1.453 5.63 2.762H7.32zm-5.09.66c.18-.39.57-.64.997-.633h3.242v2.735H1.285zm2.942 9.47a1.945 1.945 0 01-1.945-1.942 1.946 1.946 0 113.324 1.375c-.367.367-.864.57-1.38.566zm12.996 0a1.945 1.945 0 01-1.945-1.942 1.946 1.946 0 113.324 1.375c-.367.367-.863.57-1.379.566zm4.2-2.278h-1.415a2.81 2.81 0 00-5.582 0H7.934a2.787 2.787 0 00-2.786-2.485 2.821 2.821 0 00-2.75 2.485h-.863c-.406-.207-.816-.504-.816-.817a.639.639 0 01.097-.36.684.684 0 00.11-.386v-2.71H18l2.508.613c1.922.492 2.015.828 2.101 1.796.028.176.094.34.203.48a.815.815 0 01.204.544.77.77 0 01-.649.84zm0 0" fill="#4a4a4a"/></svg>