<svg width="25" height="25" viewBox="0 0 25 25" fill="none" xmlns="http://www.w3.org/2000/svg"><path d="M12.196 17.264h1.613c.348 0 .63-.294.63-.657a.643.643 0 00-.63-.656h-1.613a.643.643 0 00-.63.656c0 .363.282.657.63.657z" fill="#4A4A4A"/><path fill-rule="evenodd" clip-rule="evenodd" d="M14.547 7.118l1.26 2.157c.453.78.693 1.674.693 2.585v8.943c-.005.943-.737 1.706-1.642 1.71h-3.712a1.61 1.61 0 01-1.164-.499 1.748 1.748 0 01-.482-1.211V11.86c0-.911.24-1.805.693-2.585l1.26-2.157V2.122a.6.6 0 01.588-.608h1.923a.6.6 0 01.583.608v4.996zm-2.011.683l-1.26 2.152a3.786 3.786 0 00-.512 1.908v1.723h4.485v-1.723c0-.673-.177-1.333-.513-1.908l-1.26-2.152a1.377 1.377 0 01-.18-.683V2.826h-.58v4.292c0 .24-.062.476-.18.683zm2.704 7.096v3.443h-4.476v-3.443h4.476zm-.382 6.304a.367.367 0 00.269-.118.397.397 0 00.113-.28v-1.15h-4.476v1.15c0 .22.171.398.382.398h3.712z" fill="#4A4A4A"/></svg>