<svg id="Calque_1" data-name="Calque 1" xmlns="http://www.w3.org/2000/svg" viewBox="0 0 327.66 60.94"><defs><style>.cls-1{fill:none;}.cls-2{fill:#bf0000;}</style></defs><title>R_marketing</title><rect class="cls-1" width="327.66" height="60.94" rx="2.83" ry="2.83"/><rect class="cls-1" x="14.17" y="14.17" width="299.32" height="32.6"/><polygon class="cls-2" points="125.44 46.77 41.82 46.77 48.48 53.43 125.44 46.77"/><path class="cls-2" d="M182.68,410.8v1a8.44,8.44,0,0,0-4.85-1.56c-5.86,0-10.31,5.34-10.31,11.9s4.45,11.91,10.31,11.91a8.45,8.45,0,0,0,4.85-1.57v1h5.15V410.8Zm-4.85,17.78c-2.89,0-5-2.84-5-6.44s2.12-6.43,5-6.43,4.93,2.84,4.93,6.43S180.72,428.58,177.83,428.58Z" transform="translate(-133.11 -390.97)"/><path class="cls-2" d="M223.93,410.8v13.33a4.24,4.24,0,1,1-8.44,0V410.8h-5.15v13.33c0,5.47,3.75,9.92,9.22,9.92a7.85,7.85,0,0,0,4.37-1.41v.85h5.15V410.8Z" transform="translate(-133.11 -390.97)"/><path class="cls-2" d="M271.92,433.49V420.16a4.24,4.24,0,1,1,8.44,0v13.33h5.15V420.16c0-5.47-3.74-9.92-9.21-9.92a7.93,7.93,0,0,0-4.38,1.4v-.84h-5.15v22.69Z" transform="translate(-133.11 -390.97)"/><path class="cls-2" d="M152.67,433.49V424.7h3.81l6.6,8.79h6.74l-8-10.61a9.77,9.77,0,0,0-5.66-17.74h-8.9v28.35Zm0-23h3.52a4.4,4.4,0,0,1,0,8.79h-3.52Z" transform="translate(-133.11 -390.97)"/><path class="cls-2" d="M243,428.12a3.07,3.07,0,0,1-1.72.56,2.55,2.55,0,0,1-2.43-2.79v-9.71h4.41V410.8h-4.41v-5.66h-5.15v5.66h-2.72v5.38h2.72V426a7.75,7.75,0,0,0,7.66,8.09,10.6,10.6,0,0,0,5-1.42Z" transform="translate(-133.11 -390.97)"/><polygon class="cls-2" points="67.52 30.46 76.35 19.83 69.13 19.83 62.95 27.73 62.95 12.3 57.65 12.3 57.65 42.52 62.95 42.52 62.95 33.2 70.55 42.52 77.77 42.52 67.52 30.46"/><path class="cls-2" d="M254.86,410.22c-6,0-10.24,5.24-10.24,11.92,0,7,5.37,11.93,10.75,11.93,2.72,0,6.2-.94,9.12-5.08l-4.55-2.63c-3.51,5.18-9.38,2.55-10.05-2.63h14.83C266,415.58,260.72,410.22,254.86,410.22Zm4.5,9h-9.28C251.16,413.9,258.35,413.59,259.36,419.21Z" transform="translate(-133.11 -390.97)"/><path class="cls-2" d="M316.26,406.56v26.93h-3.08V410.43l-8.05,13.1-8-13.1v23.06H294V406.56h4.14l7,11.53,7-11.53Z" transform="translate(-133.11 -390.97)"/><path class="cls-2" d="M334.2,431.13a7.51,7.51,0,0,1-6.09,2.91c-5.65,0-9.52-4.62-9.52-11.33s3.9-11.29,9.58-11.29a7.65,7.65,0,0,1,6.06,2.53l.45-2h2.73v21.56h-2.73Zm-12.32-8.42c0,4.89,2.67,8.45,6.29,8.45s6.27-3.52,6.27-8.42-2.64-8.45-6.3-8.45S321.88,417.89,321.88,422.71Z" transform="translate(-133.11 -390.97)"/><path class="cls-2" d="M343.68,414c1.1-1.34,3.63-2.4,6.13-2.6v2.87c-3.39.41-6,2.47-6,4.76v14.44h-3.08V411.93h2.63Z" transform="translate(-133.11 -390.97)"/><path class="cls-2" d="M364.85,433.49l-9.41-11.33v11.33h-3.08V404.78h3.08v16.36l8.52-9.21h3.9l-9.13,9.86,10.4,11.7Z" transform="translate(-133.11 -390.97)"/><path class="cls-2" d="M386.72,429.55a9.75,9.75,0,0,1-8.65,4.49c-5.86,0-10-4.69-10-11.36s3.9-11.26,9.54-11.26c5.24,0,9.35,4.58,9.35,10.43a10,10,0,0,1-.14,1.68H371.39a8.46,8.46,0,0,0,2.19,5.65,6.16,6.16,0,0,0,4.49,2.08,6.57,6.57,0,0,0,6.12-3.62Zm-3.25-8.79c-.27-4-2.6-6.57-5.78-6.57a6,6,0,0,0-5.17,3,8.17,8.17,0,0,0-1.09,3.56Z" transform="translate(-133.11 -390.97)"/><path class="cls-2" d="M394.28,407.21v4.72h5.41v2.88h-5.41v14.3c0,1.33.75,2.05,2.19,2.05a2.67,2.67,0,0,0,2.6-1.64l2.33,1.61c-1.54,2.19-2.87,2.91-5.24,2.91s-3.86-.93-4.58-2.88a7.36,7.36,0,0,1-.38-2.74V414.81h-3.69v-2.88h3.69v-4.72Z" transform="translate(-133.11 -390.97)"/><path class="cls-2" d="M403.46,409.26V405.7H407v3.56Zm.24,24.23V411.93h3.08v21.56Z" transform="translate(-133.11 -390.97)"/><path class="cls-2" d="M413.26,413.64a8.7,8.7,0,0,1,5.92-2.22c4.61,0,7.76,3.52,7.76,8.65v13.42h-3.08V420c0-3.52-2-5.75-5.13-5.75a5.79,5.79,0,0,0-5.54,5.65v13.55h-3.08V411.93h2.74Z" transform="translate(-133.11 -390.97)"/><path class="cls-2" d="M446.6,429.07c0,6.57-3.15,10.2-8.83,10.2a9.64,9.64,0,0,1-7.69-3.56l2.05-1.95a7.42,7.42,0,0,0,5.41,2.77c4,0,5.68-2.63,5.81-8.93a6.83,6.83,0,0,1-6.05,2.91c-4.79,0-8.18-3.83-8.18-9.24,0-5.75,3.52-9.85,8.42-9.85a7.6,7.6,0,0,1,5.74,2.26l.62-1.75h2.7Zm-14.27-7.93c0,3.9,2.26,6.63,5.51,6.63s5.58-2.7,5.58-6.63-2.43-7-5.61-7S432.33,417,432.33,421.14Z" transform="translate(-133.11 -390.97)"/></svg>