<svg xmlns="http://www.w3.org/2000/svg" width="20" height="20" viewBox="0 0 20 20"><path fill="#FFF" fill-rule="evenodd" d="M17.5816667,18.3283333 L2.41916667,18.3283333 L1.7525,4.955 L4.2425,4.955 C4.1975,5.2475 4.16666667,5.545 4.16666667,5.85083333 L4.16666667,6.62583333 L5.83333333,6.62583333 L5.83333333,5.85083333 C5.83333333,5.5425 5.87166667,5.24416667 5.935,4.955 L14.065,4.955 C14.1283333,5.24416667 14.1666667,5.5425 14.1666667,5.85083333 L14.1666667,6.62583333 L15.8333333,6.62583333 L15.8333333,5.85083333 C15.8333333,5.545 15.8033333,5.2475 15.7583333,4.955 L18.2483333,4.955 L17.5816667,18.3283333 Z M10,1.67166667 C11.3283333,1.67166667 12.4991667,2.30916667 13.2625,3.2825 L6.7375,3.2825 C7.50166667,2.30916667 8.6725,1.67166667 10,1.67166667 L10,1.67166667 Z M15.2341667,3.2825 C14.2833333,1.3425 12.2975,0 10,0 C7.70333333,0 5.7175,1.3425 4.76666667,3.2825 L0,3.2825 L0.833333333,20 L19.1666667,20 L20,3.2825 L15.2341667,3.2825 Z"/></svg>