<svg version="1.1" id="Calque_1" xmlns="http://www.w3.org/2000/svg" x="0" y="0" viewBox="0 0 108.8 37.3" xml:space="preserve"><style>.st0{fill:#bf0000}</style><path d="M24.3 12.6c-.5-2.1-1.4-3.7-2.8-4.6s-3.1-1.4-5.3-1.4c-1.5 0-2.9.3-4 .9-1.1.6-2 1.4-2.7 2.4-.7 1.1-1.3 2.3-1.6 3.6-.3 1.4-.5 2.8-.5 4.3 0 1.4.1 2.8.4 4.1.3 1.3.8 2.5 1.5 3.6s1.6 2 2.8 2.6c1.2.7 2.6 1 4.3 1 1 0 2-.2 3-.5.9-.3 1.7-.8 2.3-1.5.7-.6 1.3-1.4 1.7-2.2.5-.9.8-1.8 1-2.8h2.5c-.3 1.2-.7 2.3-1.2 3.4-1.1 2.2-3 4-5.4 4.8-1.3.5-2.7.7-4.4.7-2 0-3.6-.4-5-1.1-1.4-.7-2.5-1.7-3.4-2.9-.8-1.1-1.5-2.5-1.8-4-.4-1.7-.6-3.4-.6-5.1 0-2.4.3-4.4.9-6.1s1.4-3 2.5-4.1c1-1.1 2.3-1.8 3.7-2.3 1.5-.5 3.1-.7 4.7-.7 1.2 0 2.4.2 3.6.5 1.1.3 2.1.8 3 1.5.9.7 1.6 1.5 2.1 2.5.6 1.1 1 2.2 1.1 3.4h-2.4zM30.4 30.9V4.5h2.2v26.4h-2.2zM48.9 11.9h2.2v19h-2.2v-2.6c-.3.3-.6.7-1 1.1-.4.4-.8.7-1.3 1-.5.3-1.1.6-1.7.8-.7.2-1.5.3-2.2.3-1.3 0-2.4-.2-3.2-.5-.8-.3-1.5-.8-2.1-1.5-.5-.6-.9-1.4-1.1-2.2-.2-.9-.4-1.8-.4-2.8V11.9h2.2v12.5c0 1.6.4 2.9 1.1 3.8s2 1.3 3.8 1.3c.8 0 1.7-.2 2.5-.5.7-.3 1.4-.9 1.8-1.5.5-.7.9-1.5 1.2-2.3.3-.9.4-1.9.4-2.9V11.9zM56.6 30.9h-2.2V4.5h2.2V15c.7-1.2 1.7-2.1 2.9-2.7 1.2-.6 2.6-.9 3.9-.9 1.5 0 2.7.3 3.8.8 1 .5 2 1.3 2.7 2.2.7 1 1.3 2 1.6 3.2.3 1.2.5 2.5.5 3.8 0 1.3-.2 2.6-.5 3.9-.3 1.2-.8 2.2-1.5 3.2-.7.9-1.6 1.6-2.7 2.1s-2.4.8-4 .8c-.6 0-1.3-.1-1.9-.3-.7-.2-1.3-.4-1.9-.7-.6-.3-1.2-.7-1.7-1.2s-.9-1-1.2-1.7h-.1v3.4zm0-9.6c0 1.1.1 2.2.4 3.2.3.9.7 1.8 1.2 2.6.5.7 1.2 1.3 2 1.7.9.4 1.8.6 2.8.6.9 0 1.8-.2 2.6-.5s1.5-.8 2.1-1.4c.6-.7 1.1-1.5 1.4-2.3.4-1 .5-2.1.5-3.2.1-1.1 0-2.3-.3-3.4-.2-1-.6-1.9-1.2-2.7-.5-.8-1.3-1.4-2.1-1.9-.9-.5-1.8-.7-3-.7-.9 0-1.9.2-2.7.6-.8.4-1.5 1-2 1.7-.6.8-1 1.6-1.3 2.5-.2 1.1-.4 2.2-.4 3.2z"/><g id="Logos"><path class="st0" d="M78.6 37.3l-4.4-3.6H105zM83.6 30.9v-8.2h3.5l6.1 8.2h6.3l-7.4-9.8c4.1-2.9 5-8.6 2.1-12.6-1.7-2.4-4.5-3.8-7.4-3.8h-8.3V31h5.1zm0-21.3h3.3c2.3 0 4.1 1.8 4.1 4.1s-1.8 4.1-4.1 4.1h-3.3V9.6z"/></g></svg>