<svg id="Calque_1" data-name="Calque 1" xmlns="http://www.w3.org/2000/svg" viewBox="0 0 36.29 36.29"><defs><style>.cls-1{fill:#020202}</style></defs><path class="cls-1" d="M15.87 23.9l-5.33-5.34 1.59-1.6 3.74 3.74 8.28-8.28 1.6 1.6-9.88 9.88z"/><g id="Calque_2" data-name="Calque 2"><g id="Calque_1-2" data-name="Calque 1-2"><path class="cls-1" d="M30.26 11.26a13.84 13.84 0 00-9.6-6.68l.78-.44A.82.82 0 0021.76 3a.84.84 0 00-1.11-.31l-3 1.73a.85.85 0 00-.31 1.1l1.77 2.7a.82.82 0 001.38-.88L19.56 6a12.13 12.13 0 014.57 22.7.84.84 0 00-.3 1.14.83.83 0 001.13.3 13.9 13.9 0 005.3-18.88zM18.94 30.72L17.19 28a.81.81 0 00-1.12-.24.82.82 0 00-.25 1.13l.89 1.37a12.13 12.13 0 01-4.59-22.7.81.81 0 00.31-1.07.84.84 0 00-1.12-.32A13.93 13.93 0 006 25.06a13.84 13.84 0 009.59 6.69l-.77.44a.81.81 0 00.8 1.41l3-1.72a.86.86 0 00.32-1.16z"/></g></g></svg>