<svg xmlns="http://www.w3.org/2000/svg" width="24" height="24" viewBox="0 0 24 24"><g fill="#4a4a4a"><path d="M17.004 0H6.996c-.531 0-1.039.21-1.414.586a2.007 2.007 0 00-.578 1.418v19.992c-.004.531.207 1.04.578 1.418.375.375.883.586 1.414.586h10.008c.531 0 1.039-.21 1.414-.586.371-.379.582-.887.578-1.418V2.004a2.007 2.007 0 00-.578-1.418A1.999 1.999 0 0017.004 0zM6.996 1.02h10.008c.539.007.973.445.973.984v16.61H6V2.003c0-.262.105-.516.293-.7a.973.973 0 01.703-.284zm10.008 21.96H6.996a.973.973 0 01-.703-.285.981.981 0 01-.293-.699v-2.398h12v2.398a.981.981 0 01-.293.7.973.973 0 01-.703.284zm0 0"/><path d="M13.309 20.555H10.69a.48.48 0 100 .96h2.618a.48.48 0 100-.96zm0 0"/></g></svg>