<svg xmlns="http://www.w3.org/2000/svg" viewBox="0 0 21.083 21.545"><path d="M19.085 17.072c-.781-.118-.568-2.013-.308-2.367.26-.355.213-.876-.071-2.107s-.734-.9-1.42-.805c-.047-.758 1.255-2.036 2.013-2.415s.379-1.728 1.113-3.149c.71-1.42-.947-.853-2.083-1.16-1.136-.308-3.859-2.131-4.664-3.077-.308-.379-.639-.971-1.207-1.207C11.89.548 11.18.501 10.801.501c-.142 0-.284.118-.284.26-.047.568-.26 1.917-1.16 2.273-1.16.45-1.255 1.231-2.131 1.136-.402-.047-.734-.616-1.089-.805-.237-.142-.616-.023-.829.071-.142.047-.213.189-.189.332.071.402.213 1.231.474 1.917-.663.023-1.704.071-2.296-.592-.45-.497-1.846-.023-2.486.213a.493.493 0 00-.308.497c.023.45.166 1.16.71 1.35 2.604.899 3.93 4.403 3.93 4.403.544 1.965-.426 5.161-.923 6.747a.597.597 0 00.213.639c1.113.805 2.462 1.042 3.551 1.065.402 0 .781.142 1.065.402.71.616 1.492.686 2.628.616.213 0 .379-.213.355-.426-.308-2.604 2.77-2.154 4.237-1.35 1.539.853 1.681.047 2.746-.71 1.065-.758.853-1.373.071-1.468h0v.002z" fill="none" stroke="#4a4a4a" stroke-miterlimit="10"/></svg>