<svg width="24" height="24" viewBox="0 0 24 24" fill="none" xmlns="http://www.w3.org/2000/svg"><path fill-rule="evenodd" clip-rule="evenodd" d="M20.558 18.828l.104.118c1.089 1.226.703 2.207.2 2.787a1.67 1.67 0 01-1.28.613 2.199 2.199 0 01-1.46-.684 2.065 2.065 0 01-1.542.703 2.03 2.03 0 01-1.466-.622 2.04 2.04 0 01-2.93 0 2.04 2.04 0 01-2.93 0 2.03 2.03 0 01-1.466.622 2.064 2.064 0 01-1.547-.703c-.39.409-.912.652-1.465.684a1.675 1.675 0 01-1.28-.613c-.503-.585-.866-1.565.273-2.905a2.399 2.399 0 01-.748-1.72 2.404 2.404 0 01.707-1.74 2.403 2.403 0 01-.708-1.712c0-.648.256-1.267.708-1.712a2.401 2.401 0 01-.724-1.714 2.403 2.403 0 01.706-1.723A2.404 2.404 0 013 6.765c.008-.659.28-1.283.75-1.724-1.11-1.339-.77-2.32-.267-2.91a1.67 1.67 0 011.28-.612 2.2 2.2 0 011.46.684A2.065 2.065 0 017.766 1.5a2.031 2.031 0 011.451.641 2.04 2.04 0 012.93 0 2.04 2.04 0 012.931 0c.39-.4.917-.625 1.465-.622a2.064 2.064 0 011.547.702c.39-.408.913-.651 1.465-.683.492.002.959.226 1.28.613.503.584.866 1.565-.273 2.904.47.44.741 1.064.749 1.722a2.403 2.403 0 01-.708 1.74c.452.445.709 1.063.709 1.71 0 .648-.257 1.267-.709 1.713.452.445.709 1.064.709 1.711 0 .648-.257 1.267-.709 1.712.45.446.705 1.065.703 1.712-.01.666-.28 1.299-.748 1.753zm-.99 2.146a.345.345 0 00.264-.142v-.018c.3-.35.13-.57-.135-.915-.096-.126-.206-.268-.31-.439v-1.542c.307-.217.51-.56.558-.943 0-.413-.23-.63-.46-.849a6.636 6.636 0 01-.098-.094v-1.509l.066-.06c.24-.22.492-.45.492-.883 0-.413-.23-.63-.46-.849a7.193 7.193 0 01-.098-.094v-1.509l.054-.048c.244-.22.504-.455.504-.895 0-.413-.23-.63-.46-.849l-.098-.094V7.733l.054-.048c.244-.22.504-.455.504-.895 0-.413-.23-.63-.46-.849l-.098-.094V4.305c.056-.069.114-.136.171-.202.312-.36.586-.678.283-1.033a.34.34 0 00-.263-.137c-.201 0-.418.197-.65.41l-.171.151h-1.361a6.552 6.552 0 01-.08-.102c-.187-.24-.372-.478-.741-.478s-.554.238-.74.478a6.506 6.506 0 01-.081.102h-1.288a6.014 6.014 0 01-.081-.102c-.187-.24-.372-.478-.74-.478-.37 0-.554.238-.74.478-.027.034-.054.069-.082.102h-1.288l-.08-.102c-.187-.24-.372-.478-.741-.478-.372 0-.557.242-.742.484l-.075.096h-1.31a6.51 6.51 0 01-.081-.102c-.187-.24-.372-.478-.74-.478-.367 0-.549.235-.733.473a6.169 6.169 0 01-.084.107H5.588a9.407 9.407 0 01-.172-.154c-.233-.211-.447-.407-.645-.407a.345.345 0 00-.263.142c-.294.35-.021.67.284 1.026.056.067.114.135.17.204V5.97l-.053.048c-.245.22-.505.455-.505.895 0 .413.23.63.46.85.033.03.066.061.098.093v1.509l-.065.06c-.241.22-.493.45-.493.883 0 .413.23.63.46.85.033.03.066.061.098.093v1.509a9.433 9.433 0 01-.053.048c-.245.22-.505.455-.505.895 0 .413.23.63.46.85.033.03.066.061.098.093v1.509l-.053.048c-.245.22-.505.455-.505.895 0 .413.23.63.46.85.033.03.066.061.098.093v1.56c-.056.07-.114.137-.17.203-.312.36-.587.678-.284 1.033a.34.34 0 00.263.137c.202 0 .418-.197.651-.409l.17-.152h1.361l.081.102c.187.24.372.478.74.478.37 0 .554-.238.74-.478.027-.034.054-.069.082-.102h1.288l.08.102c.187.24.372.478.741.478s.554-.238.74-.478l.081-.102h1.27l.081.102c.186.24.371.478.74.478.372 0 .557-.242.742-.484l.075-.096h1.32l.08.102c.187.24.372.478.741.478.366 0 .548-.235.732-.473l.085-.107h1.36c.059.05.116.103.173.154.232.211.447.407.644.407z" fill="#4A4A4A"/><path fill-rule="evenodd" clip-rule="evenodd" d="M18.027 18.97H6.269V4.914h11.758V18.97zM7.629 14.255v3.3h9.037v-3.3H7.629zm2.123-1.414c.327-1.09 1.297-1.833 2.396-1.833 1.098 0 2.068.743 2.395 1.833h-4.79zm6.896-.015V6.343l-9.019-.015v6.498h.744c.357-1.884 1.946-3.242 3.793-3.242 1.847 0 3.436 1.358 3.792 3.242h.69z" fill="#4A4A4A"/></svg>