<svg id="Calque_1" data-name="Calque 1" xmlns="http://www.w3.org/2000/svg" viewBox="0 0 214.81 60.94"><defs><style>.cls-1{fill:none;}.cls-2{fill:#bf0000;}</style></defs><title>R_tv</title><rect class="cls-1" width="214.81" height="60.94" rx="2.83" ry="2.83"/><rect class="cls-1" x="14.17" y="14.17" width="186.46" height="32.6"/><polygon class="cls-2" points="125.44 46.77 41.82 46.77 48.48 53.43 125.44 46.77"/><path class="cls-2" d="M239.1,410.8v1a8.42,8.42,0,0,0-4.85-1.56c-5.86,0-10.31,5.34-10.31,11.9s4.45,11.9,10.31,11.9a8.42,8.42,0,0,0,4.85-1.56v1h5.15V410.8Zm-4.85,17.78c-2.89,0-5-2.84-5-6.44s2.11-6.43,5-6.43,4.93,2.84,4.93,6.43S237.14,428.58,234.25,428.58Z" transform="translate(-189.54 -390.97)"/><path class="cls-2" d="M280.36,410.8v13.33a4.24,4.24,0,1,1-8.44,0V410.8h-5.15v13.33c0,5.47,3.74,9.91,9.21,9.91a7.93,7.93,0,0,0,4.38-1.4v.85h5.15V410.8Z" transform="translate(-189.54 -390.97)"/><path class="cls-2" d="M328.35,433.49V420.16a4.23,4.23,0,1,1,8.43,0v13.33h5.16V420.16c0-5.47-3.75-9.92-9.22-9.92a7.88,7.88,0,0,0-4.37,1.4v-.84H323.2v22.69Z" transform="translate(-189.54 -390.97)"/><path class="cls-2" d="M209.1,433.49V424.7h3.81l6.59,8.79h6.75l-8-10.61a9.77,9.77,0,0,0-5.67-17.74h-8.9v28.35Zm0-23h3.51a4.4,4.4,0,1,1,0,8.79H209.1Z" transform="translate(-189.54 -390.97)"/><path class="cls-2" d="M299.39,428.12a3.09,3.09,0,0,1-1.72.56,2.55,2.55,0,0,1-2.43-2.79v-9.71h4.4V410.8h-4.4v-5.66h-5.15v5.66h-2.73v5.38h2.73V426a7.75,7.75,0,0,0,7.66,8.09,10.56,10.56,0,0,0,5-1.42Z" transform="translate(-189.54 -390.97)"/><polygon class="cls-2" points="67.52 30.46 76.35 19.83 69.13 19.83 62.95 27.73 62.95 12.3 57.65 12.3 57.65 42.52 62.95 42.52 62.95 33.2 70.55 42.52 77.77 42.52 67.52 30.46"/><path class="cls-2" d="M311.28,410.22c-6,0-10.23,5.24-10.23,11.92,0,7,5.37,11.93,10.75,11.93,2.71,0,6.19-.94,9.12-5.08l-4.55-2.63c-3.52,5.18-9.38,2.55-10.06-2.63h14.84C322.41,415.58,317.15,410.22,311.28,410.22Zm4.5,9h-9.27C307.59,413.9,314.78,413.59,315.78,419.21Z" transform="translate(-189.54 -390.97)"/><path class="cls-2" d="M365.84,413.14c0-.9-.08-1.26.59-1.67a36.11,36.11,0,0,1,7.66-3.19,1.3,1.3,0,0,1,1.42.3,1.41,1.41,0,0,1,.18,1.51c-.44,1-.55,1.85-.07,2.23s.78.41,2-.21a6.59,6.59,0,0,0,3.32-6.27,3.16,3.16,0,0,0-1.35-2.7,5.39,5.39,0,0,0-3-.73c-3,0-4.46.75-8.41,2.16-5.48,2-12.39,4.25-16.21,5.19a3.49,3.49,0,0,0-3,3.13c0,2.51,3,3.15,5.1,2.46a52.37,52.37,0,0,1,6.25-1.89c.21,0,.32.05.34.21s.12,2.37.16,3.34c.16,4.1.51,12.08.54,12.64.06,1.06.07,4.39,1.88,4.39s2.5-1.8,2.93-4.39c.6-3.66.1-8.89-.14-13.07C366,415.4,365.84,413.14,365.84,413.14Z" transform="translate(-189.54 -390.97)"/><path class="cls-2" d="M388.41,406.56c-2.27,0-4.43,4.2-6,7.92-2,4.71-3.06,8.94-3.72,10.35-.52-1.36-1.87-5.36-2.56-6.81-1.18-2.47-2.43-4.37-4-4.37a1.92,1.92,0,0,0-1.95,2.14,12.2,12.2,0,0,0,.95,3.82c.16.42,3.21,7.82,3.65,9.18,0,0,1.45,4.48,1.59,4.87.89,2.68,1.72,3,2.29,3,.92,0,2.17-.37,2.81-3.1.4-1.75,1-3.73,1.48-5.36.9-2.94,3.14-8.5,4.59-11.88,1.17-2.75,2.65-5.91,2.65-7.87A1.68,1.68,0,0,0,388.41,406.56Z" transform="translate(-189.54 -390.97)"/></svg>