<svg data-name="Calque 1" width="18" height="21" xmlns="http://www.w3.org/2000/svg" viewBox="0 0 18 21"><path d="M17.74 15.32a.41.41 0 00-.41-.36H10v-.36c3.62 0 7 0 7-.09a.41.41 0 00.09-.54 4.59 4.59 0 01-.44-1.13 7.79 7.79 0 00-6.26-6.33L10 5.19a.41.41 0 00-.39-.27h-.2v-.16h.87a.41.41 0 000-.82H7.72a.41.41 0 000 .82h.87v.16h-.15a.41.41 0 00-.39.27l-.48 1.32a7.78 7.78 0 00-6.26 6.32A4.68 4.68 0 01.87 14a.41.41 0 00.09.54c.07.05 3.42.08 7 .09V15H.67a.41.41 0 00-.41.36L0 17a.41.41 0 00.41.46h17.1A.41.41 0 0018 17zm-9-9.58h.56l.23.66L9 6.38h-.51zM2.12 13a7 7 0 0113.76 0 4 4 0 00.25.8H1.87a4.13 4.13 0 00.25-.8zm6.7 1.63h.36V15h-.36zm-7.9 2l.08-.85h16l.11.85z" fill="#4a4a4a"/></svg>