<svg id="Calque_1" xmlns="http://www.w3.org/2000/svg" viewBox="0 0 18 14"><defs><style>.cls-1{fill:#bf0000;stroke-width:0}</style></defs><path class="cls-1" d="M11.525 3.646c.401 0 .62-.373.365-.653L9.372.163c-.183-.218-.584-.218-.767 0L6.087 3.024c-.219.28 0 .653.365.653h1.314V13.72c0 .156.146.28.328.28h1.679c.183 0 .328-.124.328-.28V3.646h1.423zM.494 7.3h1.33v4.447c0 .141.148.253.332.253h1.7c.185 0 .332-.113.332-.253V7.3h1.33c.406 0 .628-.338.37-.591L3.412 4.148c-.185-.197-.591-.197-.776 0L.088 6.737c-.221.225 0 .563.407.563zM12.482 7.3h1.333v4.447c0 .141.148.253.333.253h1.704c.185 0 .333-.113.333-.253V7.3h1.333c.407 0 .63-.338.371-.591l-2.444-2.561c-.185-.197-.593-.197-.778 0l-2.555 2.589c-.259.225-.037.563.371.563z"/></svg>