<svg data-name="Calque 1" xmlns="http://www.w3.org/2000/svg" viewBox="0 0 36.29 36.29"><path d="M30.65 17.8a4.52 4.52 0 01-.89-3.88 4.54 4.54 0 00-.9-3.84 4.58 4.58 0 00-3.57-1.71 4.58 4.58 0 01-3.58-1.72A4.56 4.56 0 0015.29 6a3.87 3.87 0 00-.7.7A4.61 4.61 0 0111 8.37a4.58 4.58 0 00-3.57 1.71 4.53 4.53 0 00-.88 3.84 4.52 4.52 0 01-.89 3.88 4.41 4.41 0 00-.87 3.83 4.53 4.53 0 002.45 3.12 4.49 4.49 0 012.5 3.08 4.44 4.44 0 001.64 2.56 4.59 4.59 0 004.79.51 4.67 4.67 0 014 0 4.51 4.51 0 002 .45 4.61 4.61 0 002.81-1 4.52 4.52 0 001.64-2.56 4.57 4.57 0 012.5-3.08 4.51 4.51 0 002.14-6 4.31 4.31 0 00-.56-.89zm-14.44 6.5l-4.53-4.54 1.37-1.36 3.16 3.18 7-7 1.36 1.39z" fill="#020202"/></svg>