<svg width="99" height="57" viewBox="0 0 99 57" fill="none" xmlns="http://www.w3.org/2000/svg"><g clip-path="url(#clip0)"><path d="M49.8 49.104l23.777.226h6.505c.599-2.256 2.618-3.986 5.085-3.986 2.468 0 4.486 1.655 5.085 3.986h7.626V28.049L88.532 1.128H73.577v34.44H34.321" fill="#020202"/><path d="M49.8 49.104l23.777.226h6.505c.599-2.256 2.618-3.986 5.085-3.986 2.468 0 4.486 1.655 5.085 3.986h7.626V28.049L88.532 1.128H73.577v34.44H34.321M80.082 49.33c-.074.451-.15.827-.15 1.278 0 2.933 2.319 5.264 5.235 5.264 2.916 0 5.234-2.331 5.234-5.264 0-.451-.075-.902-.15-1.278" stroke="#020202" stroke-width="3" stroke-miterlimit="10" stroke-linecap="round" stroke-linejoin="round"/><path d="M90.177 49.33c-.598-2.256-2.617-3.986-5.085-3.986-2.467 0-4.486 1.655-5.084 3.986M34.321 35.569v13.535h5.459c.672-2.18 2.617-3.76 5.01-3.76 2.392 0 4.336 1.58 5.01 3.76M39.78 49.104c-.15.451-.225.978-.225 1.504 0 2.933 2.318 5.264 5.234 5.264s5.234-2.331 5.234-5.264c0-.526-.074-1.053-.224-1.504M65.576 35.569H40.602c-1.795 0-3.29-1.504-3.29-3.31V11.506c0-1.804 1.495-3.308 3.29-3.308h24.974c1.795 0 3.29 1.504 3.29 3.308V32.26c0 1.805-1.495 3.309-3.29 3.309z" stroke="#020202" stroke-width="3" stroke-miterlimit="10" stroke-linecap="round" stroke-linejoin="round"/><path d="M48.603 8.121v11.806l4.71-4.286 4.711 4.286V8.121M29.91 29.553H10.318M20.114 35.719H1.122M27.591 40.832H17.198M54.959 8.121V5.264h-3.74V8.12H37.537s-.224-3.76-.224-5.79c0-2.03 13.908 2.933 13.908 2.933M55.856 8.121h13.683s.225-3.76.225-5.79c0-2.03-13.908 2.933-13.908 2.933" stroke="#020202" stroke-width="3" stroke-miterlimit="10" stroke-linecap="round" stroke-linejoin="round"/><path d="M80-1v28h20" stroke="#EBF7FE" stroke-width="3" stroke-miterlimit="10" stroke-linecap="round" stroke-linejoin="round"/><path d="M34 48.5v-12l4.5-1 7.5 9-7.5 4H34z" fill="#020202"/></g><defs><clipPath id="clip0"><path fill="#fff" d="M0 0h99v57H0z"/></clipPath></defs></svg>