<svg xmlns="http://www.w3.org/2000/svg" viewBox="0 0 14.545 14.42"><path d="M10.532 4.852l-.379.375.088.523 1.192 7.092-2.822-4.324-.698-1.07-.909.9-2.575 2.553a.624.624 0 01-1.065-.438c0-.165.065-.32.183-.437l2.575-2.553.909-.901-1.079-.692-4.361-2.797 7.154 1.182.527.087.379-.375 1.344-1.332c1.082-1.072 1.858-1.616 2.31-1.616.052 0 .083.006.139.061.074.073.345.533-1.567 2.428L10.533 4.85v.002zM13.304 0c-1.112 0-2.435 1.312-3.045 1.918L8.915 3.25l-7.5-1.24a1.108 1.108 0 00-.966.307l-.287.285a.546.546 0 00.091.85l5.135 3.294-1.635 1.62-1.899-.47a1.112 1.112 0 00-1.052.289l-.254.252a.547.547 0 00.084.846l1.7 1.123c-.016.441.141.887.482 1.224.325.322.75.483 1.175.483.02 0 .04-.005.06-.005l1.133 1.685a.557.557 0 00.853.084l.254-.252c.275-.273.385-.669.291-1.043l-.475-1.883L7.74 9.078l3.323 5.09a.554.554 0 00.857.09l.287-.285a1.09 1.09 0 00.309-.957l-1.25-7.434L12.61 4.25c.784-.777 2.744-2.72 1.568-3.885a1.2 1.2 0 00-.873-.363V0z" fill="#4a4a4a" fill-rule="evenodd"/></svg>