<svg id="Calque_1" data-name="Calque 1" xmlns="http://www.w3.org/2000/svg" viewBox="0 0 352.23 60.94"><defs><style>.cls-1{fill:none;}.cls-2{fill:#179ad6;}</style></defs><title>R_aquafadas</title><path class="cls-1" d="M2.83,0H349.39a2.83,2.83,0,0,1,2.83,2.83V58.11a2.84,2.84,0,0,1-2.84,2.84H2.83A2.83,2.83,0,0,1,0,58.11V2.83A2.83,2.83,0,0,1,2.83,0Z"/><polygon class="cls-2" points="125.44 46.77 41.82 46.77 48.48 53.43 125.44 46.77"/><path class="cls-2" d="M170.4,410.8v1a8.47,8.47,0,0,0-4.86-1.56c-5.85,0-10.31,5.34-10.31,11.9s4.46,11.9,10.31,11.9a8.47,8.47,0,0,0,4.86-1.56v1h5.15V410.8Zm-4.86,17.78c-2.89,0-5-2.84-5-6.44s2.11-6.43,5-6.43,4.93,2.84,4.93,6.43S168.44,428.58,165.54,428.58Z" transform="translate(-120.83 -390.97)"/><path class="cls-2" d="M211.65,410.8v13.33a4.24,4.24,0,1,1-8.44,0V410.8h-5.15v13.33c0,5.47,3.74,9.91,9.21,9.91a7.89,7.89,0,0,0,4.38-1.4v.85h5.15V410.8Z" transform="translate(-120.83 -390.97)"/><path class="cls-2" d="M259.64,433.49V420.16a4.24,4.24,0,1,1,8.44,0v13.33h5.15V420.16c0-5.47-3.75-9.92-9.22-9.92a7.88,7.88,0,0,0-4.37,1.4v-.84h-5.15v22.69Z" transform="translate(-120.83 -390.97)"/><path class="cls-2" d="M140.39,433.49V424.7h3.81l6.6,8.79h6.74l-8-10.61a9.77,9.77,0,0,0-5.66-17.74H135v28.35Zm0-23h3.52a4.4,4.4,0,0,1,0,8.79h-3.52Z" transform="translate(-120.83 -390.97)"/><path class="cls-2" d="M230.68,428.12a3.09,3.09,0,0,1-1.72.56,2.55,2.55,0,0,1-2.43-2.79v-9.71h4.41V410.8h-4.41v-5.66h-5.15v5.66h-2.72v5.38h2.72V426a7.75,7.75,0,0,0,7.66,8.09,10.63,10.63,0,0,0,5-1.42Z" transform="translate(-120.83 -390.97)"/><polygon class="cls-2" points="67.52 30.46 76.35 19.83 69.13 19.83 62.95 27.73 62.95 12.3 57.65 12.3 57.65 42.52 62.95 42.52 62.95 33.2 70.55 42.52 77.77 42.52 67.52 30.46"/><path class="cls-2" d="M242.58,410.22c-6,0-10.24,5.24-10.24,11.92,0,7,5.37,11.93,10.75,11.93,2.71,0,6.19-.94,9.12-5.08l-4.55-2.63c-3.52,5.18-9.38,2.55-10.06-2.63h14.84C253.71,415.58,248.44,410.22,242.58,410.22Zm4.49,9H237.8C238.88,413.9,246.07,413.59,247.07,419.21Z" transform="translate(-120.83 -390.97)"/><path class="cls-2" d="M293,406.56h4.2L309,433.49h-5.55l-2.54-6.39H289.06l-2.47,6.39h-5.43Zm6.16,16.28L295,411.49l-4.27,11.35Z" transform="translate(-120.83 -390.97)"/><path class="cls-2" d="M328.57,439.51H324v-8.43h-.12a6.38,6.38,0,0,1-.88,1,6.73,6.73,0,0,1-1.31.92,7.88,7.88,0,0,1-1.77.71,9.2,9.2,0,0,1-5.94-.49,8.34,8.34,0,0,1-2.83-2.11,9.81,9.81,0,0,1-1.83-3.15,11.34,11.34,0,0,1-.65-3.91,12.07,12.07,0,0,1,.61-3.9A9.09,9.09,0,0,1,311,417a8.59,8.59,0,0,1,2.87-2.11,9,9,0,0,1,3.84-.77,8.54,8.54,0,0,1,3.66.79,6,6,0,0,1,2.69,2.52h.08v-2.84h4.39ZM313.24,424a6.12,6.12,0,0,0,.37,2.13,5.37,5.37,0,0,0,1.07,1.82,5.59,5.59,0,0,0,1.72,1.26,5.72,5.72,0,0,0,4.54,0,5.31,5.31,0,0,0,2.8-3.08,6.45,6.45,0,0,0,0-4.25,5.56,5.56,0,0,0-1.08-1.82,5.28,5.28,0,0,0-1.72-1.26,5.72,5.72,0,0,0-4.54,0,5.28,5.28,0,0,0-1.72,1.26,5.37,5.37,0,0,0-1.07,1.82,6.1,6.1,0,0,0-.37,2.12" transform="translate(-120.83 -390.97)"/><path class="cls-2" d="M349,433.49h-4.39v-3h-.08a6.63,6.63,0,0,1-2,2.47,5.87,5.87,0,0,1-3.66,1,7.24,7.24,0,0,1-3.14-.61,5.69,5.69,0,0,1-2.1-1.66,6.45,6.45,0,0,1-1.16-2.38,11.25,11.25,0,0,1-.35-2.8V414.56h4.63v9.58c0,.53,0,1.11.08,1.76a6.28,6.28,0,0,0,.4,1.81,3.44,3.44,0,0,0,1,1.42,2.88,2.88,0,0,0,1.91.57,4.33,4.33,0,0,0,1.94-.39,3.62,3.62,0,0,0,1.31-1.07,4.13,4.13,0,0,0,.75-1.53,6.83,6.83,0,0,0,.24-1.82V414.56H349Z" transform="translate(-120.83 -390.97)"/><path class="cls-2" d="M364.19,430.88h-.12a5.9,5.9,0,0,1-2.54,2.35,7.79,7.79,0,0,1-3.39.73,9,9,0,0,1-2.48-.35,6.82,6.82,0,0,1-2.16-1.07,5.31,5.31,0,0,1-1.52-1.77,5.09,5.09,0,0,1-.58-2.49,5.83,5.83,0,0,1,.54-2.62,5.35,5.35,0,0,1,1.44-1.81,7.26,7.26,0,0,1,2.1-1.17A15.69,15.69,0,0,1,358,422a20.45,20.45,0,0,1,2.6-.27q1.31-.06,2.46-.06h1.16v-.51a3.12,3.12,0,0,0-1.19-2.67,5,5,0,0,0-3.05-.88,7,7,0,0,0-2.74.53,6.84,6.84,0,0,0-2.19,1.44l-2.43-2.49a8.87,8.87,0,0,1,3.61-2.32,12.77,12.77,0,0,1,4.25-.71,10.61,10.61,0,0,1,3.32.45A7.31,7.31,0,0,1,366,415.7a5.18,5.18,0,0,1,1.37,1.64,7.71,7.71,0,0,1,.69,1.87,10,10,0,0,1,.25,1.84c0,.59,0,1.11,0,1.55v10.89h-4.16Zm-.27-5.87h-1c-.65,0-1.37,0-2.16.08a11.47,11.47,0,0,0-2.26.37,5.24,5.24,0,0,0-1.79.87,1.94,1.94,0,0,0-.73,1.6,2,2,0,0,0,.29,1.12,2.62,2.62,0,0,0,.75.77,3.13,3.13,0,0,0,1,.45,4.6,4.6,0,0,0,1.16.14,4.75,4.75,0,0,0,3.52-1.16,4.35,4.35,0,0,0,1.14-3.18Z" transform="translate(-120.83 -390.97)"/><path class="cls-2" d="M373.74,418.58h-3.81v-4h3.81v.29a21.53,21.53,0,0,1,.27-3.57,7.11,7.11,0,0,1,1-2.74,4.77,4.77,0,0,1,2.1-1.75,8.52,8.52,0,0,1,3.51-.62,15,15,0,0,1,2.93.28l-.31,4c-.34-.08-.66-.14-1-.19a5.08,5.08,0,0,0-1-.08,3.24,3.24,0,0,0-1.54.31,2.38,2.38,0,0,0-.9.85,3.2,3.2,0,0,0-.43,1.24,12,12,0,0,0-.09,1.5v.46h4.27v4h-4.27v14.91h-4.63Z" transform="translate(-120.83 -390.97)"/><path class="cls-2" d="M396.38,430.88h-.11a6,6,0,0,1-2.55,2.35,7.72,7.72,0,0,1-3.39.73,9.06,9.06,0,0,1-2.48-.35,6.82,6.82,0,0,1-2.16-1.07,5.31,5.31,0,0,1-1.52-1.77,5.09,5.09,0,0,1-.58-2.49,5.83,5.83,0,0,1,.54-2.62,5.35,5.35,0,0,1,1.44-1.81,7.39,7.39,0,0,1,2.1-1.17,15.69,15.69,0,0,1,2.49-.65,20.64,20.64,0,0,1,2.6-.27c.87,0,1.7-.06,2.47-.06h1.15v-.51a3.12,3.12,0,0,0-1.19-2.67,5,5,0,0,0-3.05-.88,6.89,6.89,0,0,0-2.73.53,6.77,6.77,0,0,0-2.2,1.44l-2.42-2.49a8.77,8.77,0,0,1,3.6-2.32,12.77,12.77,0,0,1,4.25-.71,10.61,10.61,0,0,1,3.32.45,7.2,7.2,0,0,1,2.23,1.16,5.18,5.18,0,0,1,1.37,1.64,7.71,7.71,0,0,1,.69,1.87,10,10,0,0,1,.25,1.84c0,.59,0,1.11,0,1.55v10.89h-4.16Zm-.27-5.87h-1c-.64,0-1.36,0-2.16.08a11.25,11.25,0,0,0-2.25.37,5.07,5.07,0,0,0-1.79.87,1.92,1.92,0,0,0-.74,1.6,2,2,0,0,0,.29,1.12,2.89,2.89,0,0,0,.75.77,3.09,3.09,0,0,0,1.05.45,4.47,4.47,0,0,0,1.15.14,4.74,4.74,0,0,0,3.52-1.16,4.35,4.35,0,0,0,1.14-3.18Z" transform="translate(-120.83 -390.97)"/><path class="cls-2" d="M418.51,430.65h-.08a6,6,0,0,1-2.7,2.52,8.51,8.51,0,0,1-3.66.79,9.13,9.13,0,0,1-3.83-.77,8.39,8.39,0,0,1-2.87-2.11,8.93,8.93,0,0,1-1.81-3.15,12.09,12.09,0,0,1-.62-3.91,11.56,11.56,0,0,1,.65-3.9,9.81,9.81,0,0,1,1.83-3.15,8.49,8.49,0,0,1,6.46-2.88,8.93,8.93,0,0,1,2.31.27,8,8,0,0,1,1.77.71,6.88,6.88,0,0,1,1.31.93,6.49,6.49,0,0,1,.89,1h.11V406.65h4.63v26.84h-4.39ZM407.56,424a6.12,6.12,0,0,0,.37,2.13A5.24,5.24,0,0,0,409,428a5.43,5.43,0,0,0,1.71,1.26,5.74,5.74,0,0,0,4.55,0A5.43,5.43,0,0,0,417,428a5.24,5.24,0,0,0,1.08-1.82,6.29,6.29,0,0,0,0-4.25,5.24,5.24,0,0,0-1.08-1.82,5.14,5.14,0,0,0-1.71-1.26,5.74,5.74,0,0,0-4.55,0,5.14,5.14,0,0,0-1.71,1.26,5.24,5.24,0,0,0-1.08,1.82,6.1,6.1,0,0,0-.37,2.12" transform="translate(-120.83 -390.97)"/><path class="cls-2" d="M438.05,430.88h-.12a6,6,0,0,1-2.54,2.35A7.79,7.79,0,0,1,432,434a9.08,9.08,0,0,1-2.49-.35,6.93,6.93,0,0,1-2.16-1.07,5.4,5.4,0,0,1-1.51-1.77,5.09,5.09,0,0,1-.58-2.49,6,6,0,0,1,.53-2.62,5.5,5.5,0,0,1,1.45-1.81,7.13,7.13,0,0,1,2.1-1.17,15.41,15.41,0,0,1,2.49-.65,20.3,20.3,0,0,1,2.59-.27c.88,0,1.7-.06,2.47-.06h1.16v-.51a3.1,3.1,0,0,0-1.2-2.67,5,5,0,0,0-3-.88,6.93,6.93,0,0,0-2.74.53,6.73,6.73,0,0,0-2.19,1.44l-2.43-2.49a8.9,8.9,0,0,1,3.6-2.32,12.87,12.87,0,0,1,4.26-.71,10.55,10.55,0,0,1,3.31.45,7.26,7.26,0,0,1,2.24,1.16,5.31,5.31,0,0,1,1.37,1.64,7.71,7.71,0,0,1,.69,1.87,11,11,0,0,1,.25,1.84c0,.59,0,1.11,0,1.55v10.89h-4.16Zm-.27-5.87h-1c-.64,0-1.36,0-2.15.08a11.47,11.47,0,0,0-2.26.37,5.24,5.24,0,0,0-1.79.87,1.91,1.91,0,0,0-.73,1.6,2,2,0,0,0,.29,1.12,2.62,2.62,0,0,0,.75.77,3,3,0,0,0,1,.45,4.55,4.55,0,0,0,1.16.14,4.75,4.75,0,0,0,3.52-1.16,4.35,4.35,0,0,0,1.14-3.18Z" transform="translate(-120.83 -390.97)"/><path class="cls-2" d="M455.8,419.8a4.2,4.2,0,0,0-3.62-1.93,3.77,3.77,0,0,0-1.81.48,1.59,1.59,0,0,0-.88,1.53,1.32,1.32,0,0,0,.73,1.26,7.44,7.44,0,0,0,1.85.67c.74.19,1.54.38,2.41.58a9.35,9.35,0,0,1,2.4.9,5.32,5.32,0,0,1,1.85,1.68,5.07,5.07,0,0,1,.73,2.92,5.35,5.35,0,0,1-.71,2.86,5.61,5.61,0,0,1-1.85,1.87,8.17,8.17,0,0,1-2.56,1,13.18,13.18,0,0,1-2.85.32,12,12,0,0,1-4-.63,7.39,7.39,0,0,1-3.23-2.29l3.08-3a8.49,8.49,0,0,0,1.91,1.67,4.51,4.51,0,0,0,2.48.65,4.82,4.82,0,0,0,1-.12,3.47,3.47,0,0,0,1-.39,2.37,2.37,0,0,0,.75-.69,1.68,1.68,0,0,0,.29-1,1.62,1.62,0,0,0-.73-1.46,6.48,6.48,0,0,0-1.85-.76c-.75-.2-1.55-.39-2.41-.56a8.93,8.93,0,0,1-2.41-.83,5.06,5.06,0,0,1-1.85-1.59,4.87,4.87,0,0,1-.73-2.84,5.55,5.55,0,0,1,.64-2.74,5.61,5.61,0,0,1,1.67-1.91,7.29,7.29,0,0,1,2.39-1.11,11,11,0,0,1,2.74-.35,10.63,10.63,0,0,1,3.66.65,5.94,5.94,0,0,1,2.93,2.23Z" transform="translate(-120.83 -390.97)"/><rect class="cls-1" x="14.17" y="14.17" width="323.88" height="32.6"/></svg>