<svg id="Calque_1" data-name="Calque 1" xmlns="http://www.w3.org/2000/svg" viewBox="0 0 386.74 60.94"><defs><style>.cls-1{fill:none;}.cls-2{fill:#bf0000;}</style></defs><title>R_bank</title><rect class="cls-1" width="386.74" height="60.94" rx="2.83" ry="2.83"/><path class="cls-2" d="M399,406.56c4.55,0,8,3.28,8,7.56a5.7,5.7,0,0,1-4.07,5.54c3.35.59,5.4,2.88,5.4,6.1,0,4.65-3.21,7.73-8,7.73H388.5V406.56Zm-5.34,11.09h5a3.16,3.16,0,0,0-.07-6.3h-4.93Zm0,11.05H400a3,3,0,0,0,2.91-3.12A3,3,0,0,0,400,422.4h-6.33Z" transform="translate(-103.57 -390.97)"/><path class="cls-2" d="M425,431.54a6.64,6.64,0,0,1-5.3,2.5c-5.41,0-9.79-5.1-9.79-11.33s4.52-11.29,10.06-11.29a6,6,0,0,1,5,2.5l.68-2h4.45v21.56h-4.45Zm-10-8.83c0,3.63,2.23,6.54,5,6.54s5-2.71,5-6.51-2.09-6.53-5-6.53S415,419.08,415,422.71Z" transform="translate(-103.57 -390.97)"/><path class="cls-2" d="M438.31,413.81a6.38,6.38,0,0,1,5.23-2.39c5,0,8.52,3.93,8.52,9.41v12.66h-5.13V420.83c0-2.67-1.75-4.62-4.14-4.62a4.61,4.61,0,0,0-4.48,4.62v12.66h-5.14V411.93h4.45Z" transform="translate(-103.57 -390.97)"/><path class="cls-2" d="M468.89,433.49l-8.63-9.14v9.14h-5.13V404.78h5.13v15l7.29-7.8h7.26l-10.13,10.13,11.46,11.43Z" transform="translate(-103.57 -390.97)"/><path class="cls-2" d="M269.61,411.35V417h10.06v4.79H269.61v6.91h11.32v4.79H264.47V406.56h16.46v4.79Z" transform="translate(-103.57 -390.97)"/><path class="cls-2" d="M297.38,431.61a6.45,6.45,0,0,1-5.24,2.39c-5,0-8.52-3.93-8.52-9.41V411.93h5.13v12.66c0,2.67,1.75,4.62,4.14,4.62a4.62,4.62,0,0,0,4.49-4.62V411.93h5.13v21.56h-4.45Z" transform="translate(-103.57 -390.97)"/><path class="cls-2" d="M310.16,413.92a8.06,8.06,0,0,1,6.27-2.5v4.79c-2.43.17-3.8.85-4.83,2.36a5.64,5.64,0,0,0-.89,3.11v11.81h-5.13V411.93h4.1Z" transform="translate(-103.57 -390.97)"/><path class="cls-2" d="M337.12,422.71c0,6.57-4.24,11.33-10.09,11.33s-10.09-4.76-10.09-11.33,4.24-11.29,10.13-11.29S337.12,416.17,337.12,422.71Zm-15.09,0c0,3.53,2.13,6.16,5,6.16s5-2.63,5-6.19-2.12-6.19-5-6.19S322,419.19,322,422.74Z" transform="translate(-103.57 -390.97)"/><path class="cls-2" d="M344.3,413.92a6.07,6.07,0,0,1,5-2.5c5.55,0,10.06,5.1,10.06,11.32S355,434,349.54,434a7.32,7.32,0,0,1-5.24-2.23v7.12h-5.13v-27h4.45Zm0,8.79c0,3.83,2.06,6.54,5,6.54s5-2.91,5-6.51-2.19-6.53-5-6.53S344.3,419,344.3,422.71Z" transform="translate(-103.57 -390.97)"/><path class="cls-2" d="M380.33,429.21c-2.43,3.32-5.17,4.83-8.76,4.83-6.19,0-10.64-4.73-10.64-11.3s4.34-11.36,10-11.36,9.95,5,9.95,11.26a12,12,0,0,1-.1,1.58H366.61c.34,3,2.29,4.92,5.1,4.92a5.26,5.26,0,0,0,4.17-2.5Zm-5.27-9.37c-.51-2.57-1.95-3.91-4.14-3.91s-3.66,1.44-4.21,3.91Z" transform="translate(-103.57 -390.97)"/><polygon class="cls-2" points="125.44 46.77 41.82 46.77 48.48 53.43 125.44 46.77"/><path class="cls-2" d="M153.14,410.8v1a8.44,8.44,0,0,0-4.85-1.56c-5.86,0-10.31,5.34-10.31,11.9s4.45,11.91,10.31,11.91a8.45,8.45,0,0,0,4.85-1.57v1h5.15V410.8Zm-4.85,17.78c-2.89,0-5-2.84-5-6.44s2.12-6.43,5-6.43,4.93,2.84,4.93,6.43S151.18,428.58,148.29,428.58Z" transform="translate(-103.57 -390.97)"/><path class="cls-2" d="M194.39,410.8v13.33a4.24,4.24,0,1,1-8.44,0V410.8H180.8v13.33c0,5.47,3.75,9.92,9.22,9.92a7.85,7.85,0,0,0,4.37-1.41v.85h5.15V410.8Z" transform="translate(-103.57 -390.97)"/><path class="cls-2" d="M242.38,433.49V420.16a4.24,4.24,0,1,1,8.44,0v13.33H256V420.16c0-5.47-3.74-9.92-9.21-9.92a7.93,7.93,0,0,0-4.38,1.4v-.84h-5.15v22.69Z" transform="translate(-103.57 -390.97)"/><path class="cls-2" d="M123.13,433.49V424.7h3.81l6.6,8.79h6.74l-8-10.61a9.77,9.77,0,0,0-5.66-17.74h-8.9v28.35Zm0-23h3.52a4.4,4.4,0,1,1,0,8.79h-3.52Z" transform="translate(-103.57 -390.97)"/><path class="cls-2" d="M213.42,428.12a3.07,3.07,0,0,1-1.72.56,2.55,2.55,0,0,1-2.43-2.79v-9.71h4.41V410.8h-4.41v-5.66h-5.15v5.66H201.4v5.38h2.72V426a7.75,7.75,0,0,0,7.66,8.09,10.6,10.6,0,0,0,5-1.42Z" transform="translate(-103.57 -390.97)"/><polygon class="cls-2" points="67.52 30.46 76.35 19.83 69.13 19.83 62.95 27.73 62.95 12.3 57.65 12.3 57.65 42.52 62.95 42.52 62.95 33.2 70.55 42.52 77.77 42.52 67.52 30.46"/><path class="cls-2" d="M225.32,410.22c-6,0-10.24,5.24-10.24,11.92,0,7,5.37,11.93,10.75,11.93,2.72,0,6.2-.94,9.12-5.08l-4.55-2.63c-3.51,5.19-9.38,2.55-10.05-2.63h14.83C236.45,415.58,231.18,410.22,225.32,410.22Zm4.5,9h-9.28C221.62,413.9,228.81,413.59,229.82,419.21Z" transform="translate(-103.57 -390.97)"/><rect class="cls-1" x="14.17" y="14.17" width="358.4" height="32.6"/></svg>