<svg id="Calque_1" data-name="Calque 1" xmlns="http://www.w3.org/2000/svg" viewBox="0 0 254.81 60.94"><defs><style>.cls-1{fill:none;}.cls-2{fill:#bf0000;}</style></defs><title>R_kobo</title><rect class="cls-1" width="254.81" height="60.94" rx="2.83" ry="2.83"/><rect class="cls-1" x="14.17" y="14.17" width="226.46" height="32.6"/><polygon class="cls-2" points="160.9 11.27 165.93 11.27 165.93 29.2 172.91 20.96 178.93 20.96 170.96 30.29 179.65 42.52 173.63 42.52 166.03 31.65 165.93 31.65 165.93 42.52 160.9 42.52 160.9 11.27"/><path class="cls-2" d="M358.26,430.45c3.61,0,4.15-3.71,4.15-7.74s-.54-7.74-4.15-7.74-4.18,3.71-4.18,7.74.54,7.74,4.18,7.74m-9.52-7.74c0-7.06,3.31-11.28,9.52-11.28s9.5,4.22,9.5,11.28-3.3,11.28-9.5,11.28-9.52-4.21-9.52-11.28" transform="translate(-169.54 -390.97)"/><path class="cls-2" d="M379.51,430.45c3.23,0,3.77-4.21,3.77-7.74,0-3.9-.41-8.06-3.77-8.06-3,0-4,4.44-4,8.06,0,5.39.81,7.74,4,7.74m-4-15.94h.09a6.29,6.29,0,0,1,5.57-3.08c5.17,0,7.43,4.39,7.43,11.28,0,6-2.09,11.28-9.11,11.28-5.66,0-9-3.22-9-9.66V402.24h5Z" transform="translate(-169.54 -390.97)"/><path class="cls-2" d="M400.67,430.45c3.62,0,4.16-3.71,4.16-7.74s-.54-7.74-4.16-7.74-4.17,3.71-4.17,7.74.54,7.74,4.17,7.74m-9.51-7.74c0-7.06,3.3-11.28,9.51-11.28s9.51,4.22,9.51,11.28S406.87,434,400.67,434s-9.51-4.21-9.51-11.28" transform="translate(-169.54 -390.97)"/><polygon class="cls-2" points="125.44 46.77 41.82 46.77 48.48 53.43 125.44 46.77"/><path class="cls-2" d="M219.1,410.8v1a8.42,8.42,0,0,0-4.85-1.56c-5.86,0-10.31,5.34-10.31,11.9s4.45,11.91,10.31,11.91a8.43,8.43,0,0,0,4.85-1.57v1h5.15V410.8Zm-4.85,17.78c-2.89,0-5-2.84-5-6.44s2.11-6.43,5-6.43,4.93,2.84,4.93,6.43S217.14,428.58,214.25,428.58Z" transform="translate(-169.54 -390.97)"/><path class="cls-2" d="M260.36,410.8v13.33a4.24,4.24,0,1,1-8.44,0V410.8h-5.15v13.33c0,5.47,3.74,9.92,9.21,9.92a7.9,7.9,0,0,0,4.38-1.41v.85h5.15V410.8Z" transform="translate(-169.54 -390.97)"/><path class="cls-2" d="M308.34,433.49V420.16a4.24,4.24,0,1,1,8.44,0v13.33h5.15V420.16c0-5.47-3.74-9.92-9.21-9.92a7.93,7.93,0,0,0-4.38,1.4v-.84H303.2v22.69Z" transform="translate(-169.54 -390.97)"/><path class="cls-2" d="M189.1,433.49V424.7h3.81l6.59,8.79h6.75l-8-10.61a9.77,9.77,0,0,0-5.67-17.74h-8.9v28.35Zm0-23h3.51a4.4,4.4,0,1,1,0,8.79H189.1Z" transform="translate(-169.54 -390.97)"/><path class="cls-2" d="M279.39,428.12a3.09,3.09,0,0,1-1.72.56,2.54,2.54,0,0,1-2.43-2.79v-9.71h4.4V410.8h-4.4v-5.66h-5.15v5.66h-2.73v5.38h2.73V426a7.74,7.74,0,0,0,7.66,8.09,10.56,10.56,0,0,0,5-1.42Z" transform="translate(-169.54 -390.97)"/><polygon class="cls-2" points="67.52 30.46 76.35 19.83 69.13 19.83 62.95 27.73 62.95 12.3 57.65 12.3 57.65 42.52 62.95 42.52 62.95 33.2 70.55 42.52 77.77 42.52 67.52 30.46"/><path class="cls-2" d="M291.28,410.22c-6,0-10.23,5.24-10.23,11.92,0,7,5.36,11.93,10.75,11.93,2.71,0,6.19-.94,9.12-5.08l-4.55-2.63c-3.52,5.18-9.38,2.55-10.06-2.63h14.83C302.41,415.58,297.14,410.22,291.28,410.22Zm4.5,9H286.5C287.59,413.9,294.78,413.59,295.78,419.21Z" transform="translate(-169.54 -390.97)"/></svg>