<svg id="Calque_1" data-name="Calque 1" xmlns="http://www.w3.org/2000/svg" viewBox="0 0 275.2 60.94"><defs><style>.cls-1{fill:none;}.cls-2{fill:#00b900;}</style></defs><title>R_travel</title><rect class="cls-1" width="275.2" height="60.94" rx="2.83" ry="2.83"/><rect class="cls-1" x="14.17" y="14.17" width="246.86" height="32.6"/><path class="cls-2" d="M332.75,411.35v20.26a2.5,2.5,0,0,1-2.57,2.46,2.53,2.53,0,0,1-2.57-2.46V411.35h-5.4a2.4,2.4,0,1,1,0-4.79h16a2.4,2.4,0,1,1,0,4.79Z" transform="translate(-159.34 -390.97)"/><path class="cls-2" d="M345.82,413.92a7.07,7.07,0,0,1,3.93-2.26A2.44,2.44,0,0,1,352.8,414v0a2.42,2.42,0,0,1-1.85,2.33,5.38,5.38,0,0,0-3.7,2.26,5.64,5.64,0,0,0-.89,3.11v9.79a2.57,2.57,0,1,1-5.13,0V414a2.3,2.3,0,0,1,2.29-2.33C345.61,411.62,345.82,413.92,345.82,413.92Z" transform="translate(-159.34 -390.97)"/><path class="cls-2" d="M370.2,411.66a2.46,2.46,0,0,1,2.56,2.43v17.24a2.46,2.46,0,0,1-2.56,2.43,2.67,2.67,0,0,1-2.57-2.22,6.64,6.64,0,0,1-5.3,2.5c-5.41,0-9.79-5.1-9.79-11.33s4.52-11.29,10.06-11.29a6,6,0,0,1,5,2.5s.38-2.26,2.4-2.26Zm-2.57,11.08c0-3.83-2.09-6.53-5-6.53s-5,2.87-5,6.5,2.23,6.54,5,6.54S367.63,426.54,367.63,422.74Z" transform="translate(-159.34 -390.97)"/><path class="cls-2" d="M387.52,413.37a2.74,2.74,0,1,1,5.24,1.61l-5.27,16.39a3.95,3.95,0,0,1-7.49,0L374.69,415a2.74,2.74,0,1,1,5.24-1.61l3.83,13Z" transform="translate(-159.34 -390.97)"/><path class="cls-2" d="M410.57,427.12a2.45,2.45,0,0,1,.41,3.94,9.55,9.55,0,0,1-7.19,3c-6.19,0-10.64-4.73-10.64-11.3s4.35-11.36,10-11.36,10,5,10,11.26a1.64,1.64,0,0,1-1.65,1.58H398.83c.34,3,2.29,4.92,5.1,4.92a4.63,4.63,0,0,0,3.52-1.71A2.53,2.53,0,0,1,410.57,427.12Zm-3.29-7.28c-.51-2.57-1.95-3.91-4.14-3.91s-3.66,1.44-4.21,3.91Z" transform="translate(-159.34 -390.97)"/><path class="cls-2" d="M415.24,406.76a2.57,2.57,0,0,1,5.13,0v24.71a2.57,2.57,0,1,1-5.13,0Z" transform="translate(-159.34 -390.97)"/><polygon class="cls-2" points="125.44 46.77 41.82 46.77 48.48 53.43 125.44 46.77"/><path class="cls-2" d="M208.91,410.8v1a8.46,8.46,0,0,0-4.85-1.56c-5.86,0-10.31,5.34-10.31,11.9s4.45,11.91,10.31,11.91a8.47,8.47,0,0,0,4.85-1.57v1h5.15V410.8Zm-4.85,17.78c-2.89,0-5-2.84-5-6.44s2.12-6.43,5-6.43,4.93,2.84,4.93,6.43S207,428.58,204.06,428.58Z" transform="translate(-159.34 -390.97)"/><path class="cls-2" d="M250.16,410.8v13.33a4.24,4.24,0,1,1-8.44,0V410.8h-5.15v13.33c0,5.47,3.74,9.92,9.22,9.92a7.85,7.85,0,0,0,4.37-1.41v.85h5.15V410.8Z" transform="translate(-159.34 -390.97)"/><path class="cls-2" d="M298.15,433.49V420.16a4.24,4.24,0,1,1,8.44,0v13.33h5.15V420.16c0-5.47-3.74-9.92-9.21-9.92a7.89,7.89,0,0,0-4.38,1.4v-.84H293v22.69Z" transform="translate(-159.34 -390.97)"/><path class="cls-2" d="M178.9,433.49V424.7h3.81l6.6,8.79h6.74l-8-10.61a9.77,9.77,0,0,0-5.66-17.74h-8.9v28.35Zm0-23h3.52a4.4,4.4,0,0,1,0,8.79H178.9Z" transform="translate(-159.34 -390.97)"/><path class="cls-2" d="M269.19,428.12a3.07,3.07,0,0,1-1.72.56,2.55,2.55,0,0,1-2.43-2.79v-9.71h4.41V410.8H265v-5.66h-5.15v5.66h-2.72v5.38h2.72V426a7.75,7.75,0,0,0,7.66,8.09,10.6,10.6,0,0,0,5-1.42Z" transform="translate(-159.34 -390.97)"/><polygon class="cls-2" points="67.52 30.46 76.35 19.83 69.13 19.83 62.95 27.73 62.95 12.3 57.65 12.3 57.65 42.52 62.95 42.52 62.95 33.2 70.55 42.52 77.77 42.52 67.52 30.46"/><path class="cls-2" d="M281.09,410.22c-6,0-10.24,5.24-10.24,11.92,0,7,5.37,11.93,10.75,11.93,2.72,0,6.2-.94,9.12-5.08l-4.55-2.63c-3.52,5.19-9.38,2.55-10.06-2.63H291C292.22,415.58,287,410.22,281.09,410.22Zm4.49,9h-9.27C277.39,413.9,284.58,413.59,285.58,419.21Z" transform="translate(-159.34 -390.97)"/></svg>