<svg id="Calque_1" data-name="Calque 1" xmlns="http://www.w3.org/2000/svg" viewBox="0 0 248.2 60.94"><defs><style>.cls-1{fill:none;}.cls-2{fill:#0c9bff;}</style></defs><title>R_viki</title><path class="cls-1" d="M2.83,0H245.36a2.83,2.83,0,0,1,2.83,2.83V58.11a2.84,2.84,0,0,1-2.84,2.84H2.83A2.83,2.83,0,0,1,0,58.11V2.83A2.83,2.83,0,0,1,2.83,0Z"/><polygon class="cls-2" points="125.44 46.77 41.82 46.77 48.48 53.43 125.44 46.77"/><path class="cls-2" d="M222.41,410.8v1a8.42,8.42,0,0,0-4.85-1.56c-5.86,0-10.31,5.34-10.31,11.9S211.7,434,217.56,434a8.42,8.42,0,0,0,4.85-1.56v1h5.15V410.8Zm-4.85,17.78c-2.89,0-5-2.84-5-6.44s2.12-6.43,5-6.43,4.93,2.84,4.93,6.43S220.45,428.58,217.56,428.58Z" transform="translate(-172.85 -390.97)"/><path class="cls-2" d="M263.66,410.8v13.33a4.23,4.23,0,1,1-8.43,0V410.8h-5.15v13.33c0,5.47,3.74,9.91,9.21,9.91a7.88,7.88,0,0,0,4.37-1.4v.85h5.15V410.8Z" transform="translate(-172.85 -390.97)"/><path class="cls-2" d="M311.65,433.49V420.16a4.24,4.24,0,1,1,8.44,0v13.33h5.15V420.16c0-5.47-3.74-9.92-9.21-9.92a7.93,7.93,0,0,0-4.38,1.4v-.84H306.5v22.69Z" transform="translate(-172.85 -390.97)"/><path class="cls-2" d="M192.41,433.49V424.7h3.81l6.59,8.79h6.74l-8-10.61a9.77,9.77,0,0,0-5.66-17.74H187v28.35Zm0-23h3.51a4.4,4.4,0,1,1,0,8.79h-3.51Z" transform="translate(-172.85 -390.97)"/><path class="cls-2" d="M282.69,428.12a3.07,3.07,0,0,1-1.72.56,2.54,2.54,0,0,1-2.42-2.79v-9.71H283V410.8h-4.4v-5.66h-5.15v5.66h-2.73v5.38h2.73V426a7.73,7.73,0,0,0,7.65,8.09,10.6,10.6,0,0,0,5-1.42Z" transform="translate(-172.85 -390.97)"/><polygon class="cls-2" points="67.52 30.46 76.35 19.83 69.13 19.83 62.95 27.73 62.95 12.3 57.65 12.3 57.65 42.52 62.95 42.52 62.95 33.2 70.55 42.52 77.76 42.52 67.52 30.46"/><path class="cls-2" d="M294.59,410.22c-6,0-10.24,5.24-10.24,11.92,0,7,5.37,11.92,10.75,11.92,2.72,0,6.2-.93,9.12-5.07l-4.55-2.63c-3.51,5.18-9.38,2.55-10.05-2.63h14.83C305.72,415.58,300.45,410.22,294.59,410.22Zm4.5,9h-9.28C290.89,413.9,298.08,413.59,299.09,419.21Z" transform="translate(-172.85 -390.97)"/><path class="cls-2" d="M341,406.56l5.27,17.63,5.2-17.63h7.77l-9.9,26.93h-6.14l-10-26.93Z" transform="translate(-172.85 -390.97)"/><path class="cls-2" d="M361.71,433.49V406.56h7.4v26.93Z" transform="translate(-172.85 -390.97)"/><path class="cls-2" d="M373.3,433.49V406.56h7.4V416.8l8.19-10.24h8.35l-9.79,12.06,10.47,14.87h-8.5l-6.67-9.9-2.05,2.12v7.78Z" transform="translate(-172.85 -390.97)"/><path class="cls-2" d="M399.47,433.49V406.56h7.4v26.93Z" transform="translate(-172.85 -390.97)"/><rect class="cls-1" x="14.17" y="14.17" width="219.85" height="32.6"/></svg>